<?xml version="1.0" encoding="utf-8"?>
<!-- Generator: Adobe Illustrator 16.0.0, SVG Export Plug-In . SVG Version: 6.00 Build 0)  -->
<svg version="1.2" baseProfile="tiny" id="Capa_1" xmlns="http://www.w3.org/2000/svg" xmlns:xlink="http://www.w3.org/1999/xlink"
	 x="0px" y="0px" width="270.082px" height="249.171px" viewBox="0 0 270.082 249.171" xml:space="preserve">
<g>
	<g>
		<path fill="#404041" d="M247.226,135.317c-2.023,4.553-4.724,9.105-8.094,13.658c-3.373,4.551-7.441,8.662-12.203,12.33
			c-4.766,3.668-10.266,6.641-16.504,8.916c-4.698,1.713-9.848,2.779-15.451,3.205V16.094c4.797,0.398,9.215,1.225,13.236,2.497
			c5.861,1.854,11.004,4.3,15.43,7.335c4.427,3.034,8.176,6.512,11.256,10.434c3.076,3.92,5.627,7.946,7.65,12.077l16.693-6.323
			c-2.446-5.143-5.564-10.201-9.359-15.177c-3.793-4.974-8.494-9.484-14.1-13.531c-5.608-4.047-12.33-7.292-20.172-9.737
			C207.769,1.224,198.577,0,188.04,0c-14.081,0-26.305,2.214-36.674,6.64c-10.37,4.426-19.034,10.686-25.988,18.78
			c-6.957,8.094-12.141,17.938-15.557,29.528c-3.414,11.594-5.121,24.557-5.121,38.888c0,13.829,1.707,26.579,5.121,38.257
			c0.698,2.389,1.477,4.707,2.326,6.961l-0.135,0.311c-0.168,0.424-0.803,1.939-1.896,4.553c-1.096,2.699-2.275,5.648-3.541,8.854
			c-1.602,3.539-3.373,7.586-5.311,12.139c-1.604-4.215-2.994-8.051-4.174-11.508c-1.098-2.949-2.108-5.732-3.035-8.348
			c-0.928-2.527-1.519-4.002-1.77-4.424L31.835,2.783H7.048v183.878h17.074V57.668c0-3.541-0.023-7.292-0.064-11.255
			c-0.043-3.963-0.107-7.671-0.19-11.129c-0.169-4.047-0.337-8.095-0.505-12.142c1.601,4.301,3.16,8.391,4.68,12.268
			c1.347,3.373,2.738,6.873,4.172,10.497c1.433,3.71,2.782,6.872,4.047,9.484l56.908,131.27h16.82l12.167-28.633
			c1.048,1.469,2.14,2.904,3.283,4.289c6.998,8.473,15.81,15.094,26.433,19.855s23.1,7.145,37.434,7.145
			c9.778,0,18.567-1.35,26.367-4.047c7.797-2.697,14.688-6.217,20.676-10.561c5.986-4.34,11.171-9.314,15.557-14.922
			c4.382-5.605,8.094-11.318,11.129-17.137L247.226,135.317z M123.796,93.836c0-11.717,1.243-22.403,3.731-32.058
			c2.485-9.653,6.363-17.874,11.634-24.66c5.27-6.786,11.951-12.035,20.046-15.746c1.201-0.55,2.441-1.055,3.712-1.523
			l-38.217,89.724C124.106,104.54,123.796,99.301,123.796,93.836z M140.173,151.251c-3.452-4.494-6.358-9.533-8.723-15.1
			l34.311-80.76c1.517-3.289,3.035-6.83,4.552-10.623c1.519-3.794,2.866-7.291,4.049-10.497c1.431-3.709,2.864-7.417,4.298-11.129
			c-0.169,3.373-0.297,6.915-0.379,10.623c-0.085,3.205-0.17,6.873-0.252,11.003c-0.17,4.132-0.254,8.432-0.254,12.899v115.159
			c-6.23-0.914-11.938-2.602-17.115-5.072C152.44,163.835,145.61,158.333,140.173,151.251z"/>
	</g>
	<rect y="197.274" fill="#404041" width="270.082" height="29.203"/>
	<g>
		<path fill="#FFFFFF" d="M4.552,212.946v-1.576l10.043-4.516v1.262l-8.922,4.031l8.922,4.012v1.264L4.552,212.946z"/>
		<path fill="#FFFFFF" d="M37.188,219.159v-10.305c0-0.357,0.007-0.701,0.021-1.031c0.007-0.33,0.013-0.623,0.021-0.879
			c0.006-0.295,0.017-0.578,0.029-0.848c-0.113,0.297-0.229,0.592-0.343,0.889c-0.095,0.256-0.202,0.535-0.323,0.838
			c-0.121,0.305-0.242,0.586-0.363,0.85l-4.456,10.486H30.43l-4.546-10.486c-0.102-0.209-0.209-0.461-0.324-0.758
			c-0.114-0.289-0.225-0.568-0.333-0.838c-0.121-0.311-0.245-0.637-0.374-0.98c0.014,0.322,0.027,0.646,0.041,0.969
			c0.006,0.277,0.012,0.574,0.015,0.891s0.005,0.615,0.005,0.898v10.305H23.55V204.47h1.98l4.828,11.012
			c0.021,0.035,0.068,0.152,0.143,0.354c0.074,0.209,0.154,0.432,0.242,0.668c0.094,0.275,0.205,0.582,0.333,0.92
			c0.155-0.365,0.296-0.688,0.425-0.971c0.101-0.256,0.195-0.492,0.283-0.707c0.087-0.209,0.137-0.33,0.15-0.363l4.648-10.912h1.98
			v14.689H37.188z"/>
		<path fill="#FFFFFF" d="M58.409,219.159l-1.738-4.545h-6.576l-1.718,4.545h-1.565l5.707-14.689h1.769l5.698,14.689H58.409z
			 M54.308,208.237c-0.115-0.295-0.227-0.594-0.334-0.893c-0.107-0.301-0.203-0.57-0.287-0.809c-0.085-0.24-0.15-0.436-0.197-0.592
			c-0.055-0.154-0.088-0.242-0.102-0.262c-0.006,0.033-0.035,0.131-0.086,0.293s-0.117,0.361-0.201,0.602
			c-0.085,0.238-0.18,0.502-0.283,0.793c-0.104,0.289-0.214,0.578-0.328,0.867l-1.961,5.164h5.739L54.308,208.237z"/>
		<path fill="#FFFFFF" d="M73.173,205.733v13.426h-1.525v-13.426h-5.162v-1.264h11.841v1.264H73.173z"/>
		<path fill="#FFFFFF" d="M86.767,219.159V204.47h1.495v14.689H86.767z"/>
		<path fill="#FFFFFF" d="M108.099,219.159l-1.738-4.545h-6.577l-1.718,4.545H96.5l5.708-14.689h1.768l5.699,14.689H108.099z
			 M103.997,208.237c-0.115-0.295-0.227-0.594-0.334-0.893c-0.107-0.301-0.204-0.57-0.288-0.809
			c-0.085-0.24-0.149-0.436-0.196-0.592c-0.055-0.154-0.088-0.242-0.102-0.262c-0.007,0.033-0.035,0.131-0.086,0.293
			s-0.118,0.361-0.202,0.602c-0.085,0.238-0.179,0.502-0.282,0.793c-0.105,0.289-0.215,0.578-0.329,0.867l-1.96,5.164h5.738
			L103.997,208.237z"/>
		<path fill="#FFFFFF" d="M128.399,215.188c0,0.6-0.113,1.152-0.339,1.658c-0.226,0.504-0.567,0.943-1.025,1.318
			c-0.458,0.373-1.034,0.668-1.728,0.883c-0.693,0.217-1.509,0.324-2.445,0.324c-1.677,0-2.992-0.313-3.945-0.939
			s-1.555-1.52-1.803-2.678l1.465-0.324c0.101,0.398,0.249,0.762,0.444,1.092s0.465,0.619,0.808,0.863
			c0.344,0.246,0.766,0.438,1.264,0.572s1.091,0.201,1.777,0.201c0.572,0,1.107-0.055,1.602-0.166
			c0.496-0.111,0.923-0.283,1.283-0.516s0.644-0.533,0.85-0.904c0.205-0.371,0.308-0.811,0.308-1.324
			c0-0.545-0.132-0.99-0.394-1.338c-0.264-0.348-0.605-0.631-1.025-0.854c-0.422-0.223-0.895-0.404-1.42-0.545
			c-0.525-0.143-1.048-0.277-1.566-0.404c-0.377-0.096-0.754-0.193-1.131-0.299c-0.378-0.104-0.74-0.229-1.086-0.373
			c-0.348-0.145-0.671-0.311-0.971-0.496s-0.563-0.41-0.788-0.676c-0.226-0.268-0.402-0.578-0.53-0.936s-0.191-0.768-0.191-1.232
			c0-0.68,0.127-1.264,0.383-1.748s0.613-0.883,1.071-1.191c0.458-0.311,0.995-0.539,1.612-0.688
			c0.615-0.148,1.287-0.223,2.016-0.223c0.828,0,1.535,0.07,2.121,0.213c0.586,0.141,1.086,0.348,1.5,0.621s0.748,0.613,1,1.02
			c0.253,0.408,0.446,0.879,0.581,1.41l-1.485,0.313c-0.088-0.383-0.222-0.723-0.404-1.02c-0.182-0.297-0.422-0.545-0.722-0.748
			c-0.3-0.201-0.661-0.357-1.086-0.469s-0.933-0.168-1.526-0.168c-0.66,0-1.221,0.068-1.682,0.203s-0.83,0.32-1.106,0.555
			c-0.276,0.236-0.478,0.512-0.606,0.828c-0.127,0.318-0.191,0.658-0.191,1.021c0,0.471,0.105,0.861,0.318,1.172
			c0.212,0.311,0.498,0.568,0.858,0.777s0.78,0.385,1.258,0.525c0.479,0.143,0.983,0.277,1.516,0.404
			c0.411,0.107,0.821,0.215,1.232,0.324c0.411,0.107,0.809,0.232,1.192,0.379c0.384,0.145,0.74,0.314,1.07,0.51
			s0.619,0.434,0.864,0.717c0.246,0.283,0.441,0.615,0.586,0.996C128.327,214.21,128.399,214.663,128.399,215.188z"/>
		<path fill="#FFFFFF" d="M155.848,219.372c-1.146,0-2.142-0.191-2.991-0.57c-0.848-0.381-1.553-0.91-2.111-1.588
			c-0.559-0.676-0.975-1.48-1.248-2.414c-0.271-0.932-0.408-1.951-0.408-3.057c0-1.145,0.137-2.18,0.408-3.105
			c0.273-0.926,0.688-1.713,1.243-2.359s1.248-1.146,2.076-1.5c0.829-0.354,1.806-0.531,2.931-0.531
			c0.842,0,1.575,0.098,2.201,0.293c0.627,0.195,1.164,0.455,1.612,0.779c0.448,0.322,0.823,0.684,1.126,1.08
			c0.303,0.398,0.553,0.801,0.748,1.213l-1.334,0.504c-0.162-0.33-0.365-0.65-0.611-0.965c-0.246-0.313-0.545-0.59-0.898-0.832
			s-0.766-0.438-1.232-0.586c-0.469-0.148-1.002-0.223-1.602-0.223c-0.896,0-1.668,0.148-2.314,0.443
			c-0.646,0.297-1.18,0.717-1.601,1.258c-0.421,0.543-0.731,1.199-0.93,1.971s-0.298,1.625-0.298,2.561
			c0,0.938,0.109,1.795,0.328,2.572s0.545,1.449,0.98,2.016c0.434,0.566,0.979,1.006,1.637,1.318
			c0.656,0.313,1.419,0.469,2.288,0.469c0.626,0,1.188-0.09,1.687-0.271c0.499-0.182,0.938-0.42,1.318-0.713
			c0.381-0.293,0.706-0.621,0.976-0.984c0.269-0.363,0.485-0.729,0.646-1.092l1.263,0.586c-0.242,0.465-0.539,0.922-0.889,1.369
			c-0.351,0.447-0.765,0.846-1.242,1.191c-0.479,0.348-1.029,0.629-1.652,0.844C157.331,219.265,156.629,219.372,155.848,219.372z"
			/>
		<path fill="#FFFFFF" d="M170.945,219.159V204.47h1.495v13.428h7.203v1.262H170.945z"/>
		<path fill="#FFFFFF" d="M198.146,219.159l-1.737-4.545h-6.578l-1.717,4.545h-1.566l5.709-14.689h1.768l5.698,14.689H198.146z
			 M194.045,208.237c-0.114-0.295-0.226-0.594-0.333-0.893c-0.108-0.301-0.205-0.57-0.289-0.809
			c-0.084-0.24-0.149-0.436-0.196-0.592c-0.054-0.154-0.088-0.242-0.101-0.262c-0.008,0.033-0.036,0.131-0.086,0.293
			c-0.051,0.162-0.119,0.361-0.203,0.602c-0.084,0.238-0.178,0.502-0.282,0.793c-0.104,0.289-0.214,0.578-0.329,0.867l-1.959,5.164
			h5.738L194.045,208.237z"/>
		<path fill="#FFFFFF" d="M216.983,219.159l-4.002-6.293h-3.516v6.293h-1.494V204.47h5.213c0.795,0,1.506,0.094,2.137,0.283
			c0.629,0.188,1.162,0.457,1.596,0.809c0.435,0.35,0.768,0.779,1,1.287c0.232,0.51,0.35,1.09,0.35,1.744
			c0,0.457-0.073,0.91-0.218,1.357c-0.146,0.449-0.368,0.859-0.672,1.232c-0.304,0.375-0.694,0.691-1.172,0.951
			c-0.479,0.258-1.051,0.439-1.718,0.539l4.273,6.486H216.983z M216.74,208.603c0-0.479-0.084-0.9-0.253-1.264
			c-0.168-0.363-0.414-0.67-0.736-0.92c-0.324-0.248-0.711-0.436-1.162-0.561c-0.451-0.123-0.964-0.186-1.536-0.186h-3.587v6.01
			h3.658c0.626,0,1.168-0.08,1.626-0.242s0.832-0.379,1.122-0.65c0.289-0.273,0.506-0.6,0.651-0.98
			C216.668,209.429,216.74,209.026,216.74,208.603z"/>
		<path fill="#FFFFFF" d="M241.022,211.743c0,1.146-0.158,2.188-0.475,3.127s-0.773,1.742-1.369,2.406
			c-0.596,0.662-1.322,1.178-2.178,1.545s-1.825,0.551-2.909,0.551c-1.151,0-2.159-0.191-3.021-0.57
			c-0.863-0.381-1.584-0.91-2.162-1.588c-0.58-0.676-1.014-1.48-1.304-2.414c-0.29-0.932-0.435-1.951-0.435-3.057
			c0-1.145,0.152-2.18,0.455-3.105s0.747-1.713,1.334-2.359c0.586-0.646,1.308-1.146,2.166-1.5c0.859-0.354,1.848-0.531,2.966-0.531
			c1.111,0,2.098,0.18,2.96,0.535c0.862,0.357,1.588,0.863,2.178,1.516c0.589,0.654,1.035,1.439,1.338,2.359
			S241.022,210.606,241.022,211.743z M239.466,211.743c0-0.936-0.113-1.789-0.343-2.561s-0.571-1.428-1.025-1.971
			c-0.454-0.541-1.017-0.961-1.688-1.258c-0.67-0.295-1.442-0.443-2.318-0.443c-0.896,0-1.681,0.148-2.354,0.443
			c-0.674,0.297-1.236,0.717-1.688,1.258c-0.451,0.543-0.789,1.199-1.015,1.971s-0.339,1.625-0.339,2.561
			c0,0.938,0.117,1.795,0.349,2.572c0.232,0.777,0.577,1.449,1.036,2.016c0.457,0.566,1.02,1.006,1.688,1.318
			c0.666,0.313,1.44,0.469,2.323,0.469c0.929,0,1.732-0.158,2.409-0.475c0.678-0.316,1.234-0.758,1.672-1.322
			c0.438-0.566,0.764-1.24,0.976-2.021S239.466,212.667,239.466,211.743z"/>
		<path fill="#FFFFFF" d="M249.271,217.423v-1.264l8.941-4.012l-8.941-4.031v-1.262l10.053,4.516v1.576L249.271,217.423z"/>
	</g>
	<g>
		<path fill="#6E6F70" d="M22.544,240.948v-1.182l7.531-3.387v0.947l-6.69,3.023l6.69,3.008v0.947L22.544,240.948z"/>
		<path fill="#6E6F70" d="M36.534,245.608h-1.091l4.985-11.389h1.046L36.534,245.608z"/>
		<path fill="#6E6F70" d="M56.322,245.608h-1.251l-1.787-5.492c-0.046-0.143-0.096-0.303-0.148-0.482s-0.105-0.354-0.155-0.525
			c-0.061-0.197-0.116-0.396-0.167-0.6c-0.061,0.203-0.118,0.402-0.174,0.6c-0.056,0.172-0.111,0.348-0.167,0.529
			s-0.108,0.35-0.159,0.5l-1.818,5.471h-1.228l-2.683-7.979h1.076l1.826,5.697c0.041,0.127,0.084,0.275,0.129,0.447
			s0.091,0.334,0.137,0.486c0.051,0.176,0.098,0.357,0.144,0.545c0.061-0.201,0.116-0.395,0.167-0.576
			c0.045-0.156,0.094-0.318,0.144-0.484c0.051-0.166,0.091-0.307,0.122-0.418l1.908-5.697h1.176l1.833,5.697
			c0.046,0.148,0.093,0.305,0.144,0.471c0.046,0.172,0.092,0.334,0.137,0.484c0.056,0.172,0.106,0.348,0.152,0.523
			c0.05-0.182,0.1-0.361,0.15-0.537c0.046-0.146,0.094-0.305,0.145-0.475s0.096-0.324,0.137-0.467l1.895-5.697h1.053L56.322,245.608
			z"/>
		<path fill="#6E6F70" d="M65.918,241.843c0,0.439,0.054,0.85,0.163,1.232c0.108,0.381,0.276,0.709,0.504,0.984
			c0.227,0.275,0.516,0.494,0.863,0.654c0.35,0.162,0.766,0.244,1.25,0.244c0.617,0,1.136-0.135,1.558-0.402
			s0.716-0.627,0.883-1.076l1.001,0.174c-0.086,0.223-0.213,0.459-0.379,0.709c-0.168,0.25-0.387,0.477-0.66,0.682
			c-0.272,0.205-0.607,0.377-1.004,0.516s-0.875,0.209-1.436,0.209c-0.586,0-1.117-0.09-1.592-0.27s-0.877-0.447-1.208-0.803
			c-0.331-0.357-0.587-0.795-0.769-1.314c-0.183-0.521-0.273-1.125-0.273-1.813c0-0.762,0.109-1.404,0.33-1.924
			c0.219-0.52,0.508-0.941,0.867-1.262c0.358-0.32,0.767-0.549,1.224-0.686s0.921-0.205,1.391-0.205
			c0.632,0,1.177,0.102,1.637,0.303c0.46,0.203,0.837,0.486,1.133,0.854c0.296,0.365,0.514,0.799,0.655,1.299
			s0.213,1.051,0.213,1.652v0.242H65.918z M68.631,238.304c-0.339,0-0.665,0.051-0.981,0.148s-0.596,0.258-0.841,0.477
			c-0.245,0.221-0.446,0.504-0.603,0.854c-0.156,0.348-0.245,0.773-0.266,1.273h5.267c-0.03-0.426-0.103-0.807-0.216-1.145
			s-0.275-0.627-0.484-0.863c-0.211-0.238-0.469-0.422-0.777-0.551S69.056,238.304,68.631,238.304z"/>
		<path fill="#6E6F70" d="M86.569,241.593c0,0.592-0.07,1.143-0.209,1.656c-0.139,0.512-0.354,0.955-0.644,1.326
			s-0.658,0.662-1.103,0.875c-0.445,0.211-0.965,0.318-1.561,0.318c-0.672,0-1.265-0.145-1.777-0.432
			c-0.513-0.289-0.898-0.686-1.156-1.191h-0.021c0,0.143-0.004,0.297-0.008,0.463c-0.006,0.166-0.014,0.32-0.023,0.463
			c-0.01,0.141-0.019,0.262-0.026,0.363c-0.007,0.102-0.014,0.158-0.019,0.174h-1.008c0-0.025,0.001-0.09,0.004-0.193
			c0.002-0.104,0.006-0.232,0.012-0.389c0.004-0.152,0.008-0.326,0.011-0.52c0.003-0.195,0.004-0.393,0.004-0.596v-9.66h1.075v3.6
			c0,0.156,0,0.311,0,0.461c0,0.152-0.004,0.293-0.015,0.424c-0.005,0.152-0.011,0.295-0.015,0.426h0.029
			c0.299-0.541,0.695-0.953,1.19-1.24c0.495-0.285,1.126-0.428,1.894-0.428c0.576,0,1.074,0.105,1.493,0.314
			c0.419,0.211,0.769,0.496,1.046,0.861c0.277,0.363,0.484,0.795,0.621,1.295S86.569,241.007,86.569,241.593z M85.463,241.593
			c0-0.51-0.054-0.965-0.159-1.363c-0.105-0.4-0.271-0.742-0.492-1.027c-0.223-0.285-0.502-0.502-0.838-0.652
			c-0.336-0.148-0.729-0.223-1.178-0.223c-0.359,0-0.701,0.057-1.027,0.17s-0.612,0.301-0.859,0.561
			c-0.248,0.262-0.446,0.604-0.596,1.027c-0.148,0.424-0.223,0.947-0.223,1.568c0,0.605,0.072,1.119,0.219,1.539
			c0.146,0.418,0.343,0.758,0.588,1.016c0.245,0.256,0.53,0.441,0.855,0.557c0.326,0.113,0.669,0.17,1.027,0.17
			c0.869,0,1.533-0.287,1.993-0.863S85.463,242.669,85.463,241.593z"/>
		<path fill="#6E6F70" d="M101.616,242.077v-0.939h3.834v0.939H101.616z"/>
		<path fill="#6E6F70" d="M127.052,245.608c0-0.016-0.006-0.076-0.016-0.182c-0.01-0.102-0.02-0.227-0.029-0.375
			c-0.011-0.148-0.019-0.311-0.023-0.484s-0.008-0.336-0.008-0.482h-0.015c-0.298,0.541-0.693,0.957-1.187,1.248
			c-0.492,0.289-1.125,0.436-1.897,0.436c-0.576,0-1.076-0.105-1.501-0.314c-0.424-0.211-0.773-0.5-1.049-0.867
			c-0.275-0.369-0.481-0.805-0.617-1.305c-0.137-0.5-0.205-1.043-0.205-1.629c0-0.602,0.07-1.154,0.213-1.66
			c0.141-0.504,0.359-0.943,0.654-1.314c0.296-0.371,0.664-0.66,1.107-0.871c0.441-0.209,0.958-0.314,1.549-0.314
			c0.691,0,1.289,0.146,1.792,0.436c0.503,0.291,0.883,0.684,1.141,1.18h0.015c0-0.021,0-0.072,0-0.156s-0.002-0.191-0.008-0.322
			c-0.004-0.125-0.007-0.27-0.007-0.428c0-0.16,0-0.316,0-0.475v-3.477h1.068v9.66c0,0.203,0.001,0.4,0.003,0.596
			c0.004,0.193,0.007,0.367,0.012,0.52c0.006,0.156,0.01,0.285,0.012,0.389s0.004,0.168,0.004,0.193H127.052z M126.991,241.593
			c0-0.605-0.073-1.119-0.22-1.541c-0.147-0.422-0.343-0.762-0.587-1.016c-0.246-0.256-0.531-0.441-0.857-0.557
			c-0.325-0.117-0.668-0.176-1.025-0.176c-0.869,0-1.536,0.289-2.001,0.869c-0.465,0.578-0.697,1.404-0.697,2.48
			c0,0.506,0.054,0.961,0.163,1.363c0.108,0.404,0.273,0.748,0.496,1.031s0.502,0.502,0.838,0.656s0.73,0.23,1.186,0.23
			c0.358,0,0.701-0.059,1.026-0.174c0.326-0.117,0.614-0.307,0.864-0.572s0.447-0.609,0.595-1.035
			C126.918,242.729,126.991,242.21,126.991,241.593z"/>
		<path fill="#6E6F70" d="M135.935,241.843c0,0.439,0.055,0.85,0.164,1.232c0.107,0.381,0.275,0.709,0.504,0.984
			c0.227,0.275,0.515,0.494,0.863,0.654c0.349,0.162,0.766,0.244,1.25,0.244c0.616,0,1.135-0.135,1.557-0.402
			s0.717-0.627,0.883-1.076l1.001,0.174c-0.086,0.223-0.212,0.459-0.379,0.709s-0.387,0.477-0.659,0.682
			c-0.273,0.205-0.607,0.377-1.004,0.516s-0.875,0.209-1.436,0.209c-0.586,0-1.117-0.09-1.592-0.27s-0.878-0.447-1.209-0.803
			c-0.33-0.357-0.587-0.795-0.769-1.314c-0.183-0.521-0.272-1.125-0.272-1.813c0-0.762,0.109-1.404,0.329-1.924
			s0.509-0.941,0.868-1.262c0.357-0.32,0.766-0.549,1.223-0.686s0.922-0.205,1.391-0.205c0.632,0,1.178,0.102,1.637,0.303
			c0.46,0.203,0.838,0.486,1.133,0.854c0.296,0.365,0.514,0.799,0.656,1.299c0.141,0.5,0.212,1.051,0.212,1.652v0.242H135.935z
			 M138.647,238.304c-0.338,0-0.665,0.051-0.98,0.148c-0.316,0.098-0.597,0.258-0.842,0.477c-0.244,0.221-0.445,0.504-0.602,0.854
			c-0.157,0.348-0.246,0.773-0.266,1.273h5.266c-0.029-0.426-0.102-0.807-0.215-1.145c-0.114-0.338-0.275-0.627-0.485-0.863
			c-0.21-0.238-0.469-0.422-0.776-0.551C139.438,238.368,139.072,238.304,138.647,238.304z"/>
		<path fill="#6E6F70" d="M152.343,245.608h-1.258l-3.121-7.979h1.136l2.069,5.563c0.039,0.105,0.086,0.23,0.14,0.375
			c0.053,0.143,0.106,0.289,0.159,0.436s0.102,0.289,0.147,0.428s0.081,0.264,0.106,0.375c0.03-0.102,0.068-0.221,0.113-0.359
			s0.095-0.281,0.148-0.428c0.053-0.146,0.105-0.291,0.158-0.434c0.053-0.141,0.103-0.268,0.148-0.379l2.137-5.576h1.121
			L152.343,245.608z"/>
		<path fill="#6E6F70" d="M162.349,241.843c0,0.439,0.054,0.85,0.162,1.232c0.109,0.381,0.277,0.709,0.504,0.984
			c0.228,0.275,0.516,0.494,0.864,0.654c0.349,0.162,0.765,0.244,1.25,0.244c0.616,0,1.136-0.135,1.558-0.402
			s0.716-0.627,0.883-1.076l1,0.174c-0.086,0.223-0.213,0.459-0.379,0.709c-0.167,0.25-0.387,0.477-0.659,0.682
			s-0.607,0.377-1.004,0.516c-0.397,0.139-0.876,0.209-1.437,0.209c-0.586,0-1.116-0.09-1.591-0.27
			c-0.476-0.18-0.878-0.447-1.208-0.803c-0.332-0.357-0.588-0.795-0.77-1.314c-0.182-0.521-0.273-1.125-0.273-1.813
			c0-0.762,0.11-1.404,0.33-1.924s0.509-0.941,0.867-1.262c0.359-0.32,0.768-0.549,1.225-0.686s0.92-0.205,1.391-0.205
			c0.631,0,1.176,0.102,1.637,0.303c0.459,0.203,0.836,0.486,1.133,0.854c0.295,0.365,0.514,0.799,0.654,1.299
			c0.143,0.5,0.213,1.051,0.213,1.652v0.242H162.349z M165.062,238.304c-0.34,0-0.666,0.051-0.982,0.148
			c-0.315,0.098-0.596,0.258-0.84,0.477c-0.246,0.221-0.447,0.504-0.604,0.854c-0.156,0.348-0.244,0.773-0.265,1.273h5.267
			c-0.031-0.426-0.104-0.807-0.217-1.145s-0.275-0.627-0.484-0.863c-0.21-0.238-0.469-0.422-0.777-0.551
			C165.852,238.368,165.485,238.304,165.062,238.304z"/>
		<path fill="#6E6F70" d="M175.476,245.608v-11.365h1.075v11.365H175.476z"/>
		<path fill="#6E6F70" d="M191.201,241.624c0,0.605-0.083,1.162-0.25,1.666c-0.167,0.506-0.417,0.941-0.75,1.307
			c-0.333,0.367-0.748,0.654-1.243,0.861c-0.494,0.207-1.07,0.311-1.728,0.311c-0.626,0-1.182-0.102-1.667-0.303
			c-0.484-0.203-0.891-0.488-1.216-0.857c-0.326-0.369-0.573-0.807-0.743-1.314c-0.169-0.508-0.254-1.064-0.254-1.67
			c0-0.598,0.08-1.145,0.239-1.645s0.4-0.936,0.724-1.305c0.323-0.367,0.73-0.656,1.22-0.867c0.49-0.209,1.068-0.314,1.735-0.314
			c0.702,0,1.303,0.104,1.803,0.311c0.501,0.207,0.906,0.494,1.217,0.861c0.311,0.365,0.541,0.801,0.689,1.303
			S191.201,241.022,191.201,241.624z M190.079,241.624c0-1.137-0.232-1.975-0.7-2.512c-0.468-0.539-1.158-0.809-2.072-0.809
			c-0.919,0-1.626,0.275-2.118,0.826s-0.738,1.383-0.738,2.494c0,0.564,0.066,1.055,0.2,1.469s0.323,0.758,0.568,1.031
			s0.536,0.477,0.872,0.609c0.336,0.135,0.708,0.201,1.117,0.201c0.914,0,1.621-0.268,2.121-0.803S190.079,242.761,190.079,241.624z
			"/>
		<path fill="#6E6F70" d="M205.524,241.593c0,0.592-0.072,1.143-0.215,1.656c-0.145,0.512-0.363,0.955-0.656,1.326
			s-0.662,0.662-1.105,0.875c-0.445,0.211-0.966,0.318-1.562,0.318c-0.672,0-1.262-0.145-1.77-0.432
			c-0.507-0.289-0.896-0.686-1.163-1.191h-0.03c0,0.006,0.003,0.055,0.008,0.145c0,0.092,0.003,0.207,0.007,0.35
			c0,0.146,0.003,0.303,0.008,0.469c0.006,0.172,0.008,0.34,0.008,0.5v3.563h-1.076v-9.836c0-0.207-0.001-0.408-0.004-0.602
			c-0.002-0.195-0.006-0.369-0.011-0.52c-0.005-0.152-0.009-0.279-0.012-0.383s-0.003-0.17-0.003-0.201h1.008
			c0.004,0.016,0.011,0.074,0.018,0.178c0.008,0.104,0.015,0.232,0.02,0.383c0.005,0.156,0.013,0.32,0.023,0.492
			c0.004,0.172,0.007,0.332,0.007,0.479h0.03c0.303-0.541,0.701-0.957,1.193-1.246c0.492-0.291,1.123-0.438,1.891-0.438
			c0.581,0,1.084,0.105,1.508,0.313s0.775,0.494,1.053,0.863c0.278,0.369,0.486,0.805,0.622,1.307S205.524,241.007,205.524,241.593z
			 M204.419,241.593c0-0.51-0.057-0.967-0.167-1.371c-0.111-0.404-0.278-0.748-0.5-1.031c-0.223-0.283-0.503-0.5-0.841-0.654
			c-0.339-0.154-0.732-0.232-1.183-0.232c-0.358,0-0.7,0.061-1.026,0.18c-0.326,0.117-0.613,0.309-0.86,0.57
			c-0.247,0.264-0.446,0.607-0.595,1.031s-0.224,0.947-0.224,1.568c0,0.605,0.073,1.119,0.22,1.539
			c0.146,0.418,0.342,0.758,0.588,1.016c0.244,0.256,0.529,0.441,0.855,0.557c0.326,0.113,0.668,0.17,1.027,0.17
			c0.868,0,1.537-0.287,2.004-0.863S204.419,242.669,204.419,241.593z"/>
		<path fill="#6E6F70" d="M212.931,241.843c0,0.439,0.055,0.85,0.164,1.232c0.107,0.381,0.275,0.709,0.504,0.984
			c0.227,0.275,0.515,0.494,0.863,0.654c0.349,0.162,0.766,0.244,1.25,0.244c0.616,0,1.135-0.135,1.557-0.402
			s0.717-0.627,0.883-1.076l1.001,0.174c-0.086,0.223-0.212,0.459-0.379,0.709s-0.387,0.477-0.659,0.682
			c-0.273,0.205-0.607,0.377-1.004,0.516s-0.875,0.209-1.436,0.209c-0.586,0-1.117-0.09-1.592-0.27s-0.878-0.447-1.209-0.803
			c-0.33-0.357-0.587-0.795-0.769-1.314c-0.183-0.521-0.272-1.125-0.272-1.813c0-0.762,0.109-1.404,0.329-1.924
			s0.509-0.941,0.868-1.262c0.357-0.32,0.766-0.549,1.223-0.686s0.922-0.205,1.391-0.205c0.632,0,1.178,0.102,1.637,0.303
			c0.46,0.203,0.838,0.486,1.133,0.854c0.296,0.365,0.514,0.799,0.656,1.299c0.141,0.5,0.212,1.051,0.212,1.652v0.242H212.931z
			 M215.644,238.304c-0.338,0-0.665,0.051-0.98,0.148c-0.316,0.098-0.597,0.258-0.842,0.477c-0.244,0.221-0.445,0.504-0.602,0.854
			c-0.157,0.348-0.246,0.773-0.266,1.273h5.266c-0.029-0.426-0.102-0.807-0.215-1.145c-0.114-0.338-0.275-0.627-0.485-0.863
			c-0.21-0.238-0.469-0.422-0.776-0.551C216.435,238.368,216.068,238.304,215.644,238.304z"/>
		<path fill="#6E6F70" d="M229.286,238.364c-0.359,0-0.674,0.09-0.943,0.27c-0.271,0.18-0.496,0.416-0.675,0.713
			c-0.179,0.295-0.313,0.637-0.401,1.023c-0.088,0.385-0.133,0.785-0.133,1.199v4.039h-1.076v-6c0-0.178-0.001-0.375-0.004-0.592
			c-0.002-0.217-0.006-0.424-0.011-0.621s-0.009-0.367-0.012-0.508s-0.003-0.227-0.003-0.258h0.977c0,0.02,0.006,0.105,0.016,0.258
			c0.005,0.156,0.012,0.33,0.022,0.523c0.005,0.197,0.011,0.393,0.019,0.59s0.012,0.346,0.012,0.447h0.03
			c0.106-0.328,0.228-0.615,0.364-0.859c0.136-0.246,0.3-0.447,0.492-0.607c0.191-0.158,0.41-0.279,0.655-0.363
			c0.245-0.082,0.526-0.125,0.845-0.125c0.232,0,0.417,0.027,0.553,0.084v0.879c-0.09-0.035-0.197-0.059-0.321-0.072
			C229.567,238.372,229.433,238.364,229.286,238.364z"/>
		<path fill="#6E6F70" d="M235.343,244.306v-0.947l6.707-3.008l-6.707-3.023v-0.947l7.54,3.387v1.182L235.343,244.306z"/>
	</g>
</g>
</svg>
